<svg width="100%" viewBox="0 0 680 880" xmlns="http://www.w3.org/2000/svg">
<style>
  text { font-family: system-ui, -apple-system, sans-serif; }
  .th { font-size: 14px; font-weight: 500; fill: #2C2C2A; }
  .ts { font-size: 12px; font-weight: 400; fill: #5F5E5A; }
  .arr { stroke: #888780; stroke-width: 1.5; }
  .tier-label { font-size: 12px; font-weight: 400; fill: #888780; }
  .tier-line { stroke: #B4B2A9; stroke-width: 0.5; opacity: 0.3; }

  .teal-box { fill: #E1F5EE; stroke: #0F6E56; stroke-width: 0.5; }
  .teal-th { fill: #085041; font-size: 14px; font-weight: 500; }
  .teal-ts { fill: #0F6E56; font-size: 11px; }
  .coral-box { fill: #FAECE7; stroke: #993C1D; stroke-width: 0.5; }
  .coral-th { fill: #712B13; font-size: 14px; font-weight: 500; }
  .coral-ts { fill: #993C1D; font-size: 11px; }
  .purple-box { fill: #EEEDFE; stroke: #534AB7; stroke-width: 0.5; }
  .purple-th { fill: #3C3489; font-size: 14px; font-weight: 500; }
  .purple-ts { fill: #534AB7; font-size: 11px; }
  .blue-box { fill: #E6F1FB; stroke: #185FA5; stroke-width: 0.5; }
  .blue-th { fill: #0C447C; font-size: 14px; font-weight: 500; }
  .blue-ts { fill: #185FA5; font-size: 12px; }
  .amber-box { fill: #FAEEDA; stroke: #854F0B; stroke-width: 0.5; }
  .amber-th { fill: #633806; font-size: 14px; font-weight: 500; }
  .amber-ts { fill: #854F0B; font-size: 12px; }
  .gray-box { fill: #F1EFE8; stroke: #5F5E5A; stroke-width: 0.5; }
  .gray-th { fill: #444441; font-size: 14px; font-weight: 500; }
  .gray-ts { fill: #5F5E5A; font-size: 12px; }
  .green-box { fill: #EAF3DE; stroke: #3B6D11; stroke-width: 0.5; }
  .green-th { fill: #27500A; font-size: 14px; font-weight: 500; }
  .green-ts { fill: #3B6D11; font-size: 12px; }
  .pink-box { fill: #FBEAF0; stroke: #993556; stroke-width: 0.5; }
  .pink-th { fill: #72243E; font-size: 14px; font-weight: 500; }
  .pink-ts { fill: #993556; font-size: 11px; }

  marker path { stroke-linecap: round; stroke-linejoin: round; }
</style>
<defs>
  <marker id="arrow" viewBox="0 0 10 10" refX="8" refY="5" markerWidth="6" markerHeight="6" orient="auto-start-reverse">
    <path d="M2 1L8 5L2 9" fill="none" stroke="#888780" stroke-width="1.5"/>
  </marker>
</defs>

<text class="th" x="340" y="28" text-anchor="middle" style="font-size:16px">Sierra Pulse — system architecture</text>

<!-- ═══════════ DATA SOURCES: CONDITIONS ═══════════ -->
<text class="tier-label" x="40" y="58">Conditions</text>
<line class="tier-line" x1="40" y1="65" x2="640" y2="65"/>

<rect class="teal-box" x="40" y="76" width="90" height="50" rx="6"/>
<text class="teal-th" x="85" y="94" text-anchor="middle" dominant-baseline="central">CDEC</text>
<text class="teal-ts" x="85" y="112" text-anchor="middle" dominant-baseline="central">Snowpack</text>

<rect class="teal-box" x="140" y="76" width="90" height="50" rx="6"/>
<text class="teal-th" x="185" y="94" text-anchor="middle" dominant-baseline="central">USGS</text>
<text class="teal-ts" x="185" y="112" text-anchor="middle" dominant-baseline="central">Streamflow</text>

<rect class="teal-box" x="240" y="76" width="90" height="50" rx="6"/>
<text class="teal-th" x="285" y="94" text-anchor="middle" dominant-baseline="central">NOAA</text>
<text class="teal-ts" x="285" y="112" text-anchor="middle" dominant-baseline="central">Weather</text>

<rect class="coral-box" x="340" y="76" width="90" height="50" rx="6"/>
<text class="coral-th" x="385" y="94" text-anchor="middle" dominant-baseline="central">NIFC</text>
<text class="coral-ts" x="385" y="112" text-anchor="middle" dominant-baseline="central">Fire</text>

<rect class="purple-box" x="440" y="76" width="100" height="50" rx="6"/>
<text class="purple-th" x="490" y="94" text-anchor="middle" dominant-baseline="central">Caltrans</text>
<text class="purple-ts" x="490" y="112" text-anchor="middle" dominant-baseline="central">Roads</text>

<rect class="blue-box" x="550" y="76" width="90" height="50" rx="6"/>
<text class="blue-th" x="595" y="94" text-anchor="middle" dominant-baseline="central">Sentinel-2</text>
<text class="blue-ts" x="595" y="112" text-anchor="middle" dominant-baseline="central">Satellite snow</text>

<!-- ═══════════ DATA SOURCES: HUMAN + ADMIN ═══════════ -->
<text class="tier-label" x="40" y="148">Human + administrative</text>
<line class="tier-line" x1="40" y1="155" x2="640" y2="155"/>

<rect class="green-box" x="40" y="166" width="110" height="50" rx="6"/>
<text class="green-th" x="95" y="184" text-anchor="middle" dominant-baseline="central">NPS API</text>
<text class="green-ts" x="95" y="202" text-anchor="middle" dominant-baseline="central">Park alerts</text>

<rect class="green-box" x="162" y="166" width="110" height="50" rx="6"/>
<text class="green-th" x="217" y="184" text-anchor="middle" dominant-baseline="central">USFS</text>
<text class="green-ts" x="217" y="202" text-anchor="middle" dominant-baseline="central">Forest alerts</text>

<rect class="pink-box" x="284" y="166" width="110" height="50" rx="6"/>
<text class="pink-th" x="339" y="184" text-anchor="middle" dominant-baseline="central">Strava</text>
<text class="pink-ts" x="339" y="202" text-anchor="middle" dominant-baseline="central">Boot traffic</text>

<rect class="amber-box" x="406" y="166" width="110" height="50" rx="6"/>
<text class="amber-th" x="461" y="184" text-anchor="middle" dominant-baseline="central">Recreation.gov</text>
<text class="amber-ts" x="461" y="202" text-anchor="middle" dominant-baseline="central">Permits</text>

<rect class="amber-box" x="528" y="166" width="112" height="50" rx="6"/>
<text class="amber-th" x="584" y="184" text-anchor="middle" dominant-baseline="central">ReserveCalifornia</text>
<text class="amber-ts" x="584" y="202" text-anchor="middle" dominant-baseline="central">Campgrounds</text>

<!-- Arrows from all sources down to ingestion -->
<line x1="85" y1="126" x2="85" y2="240" class="arr" marker-end="url(#arrow)"/>
<line x1="185" y1="126" x2="185" y2="240" class="arr" marker-end="url(#arrow)"/>
<line x1="285" y1="126" x2="285" y2="240" class="arr" marker-end="url(#arrow)"/>
<line x1="385" y1="126" x2="385" y2="240" class="arr" marker-end="url(#arrow)"/>
<line x1="490" y1="126" x2="490" y2="240" class="arr" marker-end="url(#arrow)"/>
<line x1="595" y1="126" x2="595" y2="240" class="arr" marker-end="url(#arrow)"/>

<line x1="95" y1="216" x2="95" y2="240" class="arr" marker-end="url(#arrow)"/>
<line x1="217" y1="216" x2="217" y2="240" class="arr" marker-end="url(#arrow)"/>
<line x1="339" y1="216" x2="339" y2="240" class="arr" marker-end="url(#arrow)"/>
<line x1="461" y1="216" x2="461" y2="240" class="arr" marker-end="url(#arrow)"/>
<line x1="584" y1="216" x2="584" y2="240" class="arr" marker-end="url(#arrow)"/>

<!-- ═══════════ INGESTION ═══════════ -->
<text class="tier-label" x="40" y="258">Ingestion layer (Supabase edge functions + Vercel cron)</text>
<line class="tier-line" x1="40" y1="265" x2="640" y2="265"/>

<rect class="gray-box" x="40" y="278" width="185" height="56" rx="8"/>
<text class="gray-th" x="132" y="298" text-anchor="middle" dominant-baseline="central">Scheduled cron</text>
<text class="gray-ts" x="132" y="318" text-anchor="middle" dominant-baseline="central">CDEC, USGS, NOAA, NPS</text>

<rect class="gray-box" x="245" y="278" width="185" height="56" rx="8"/>
<text class="gray-th" x="337" y="298" text-anchor="middle" dominant-baseline="central">Event-driven fetch</text>
<text class="gray-ts" x="337" y="318" text-anchor="middle" dominant-baseline="central">Fire, Caltrans, satellite</text>

<rect class="gray-box" x="450" y="278" width="190" height="56" rx="8"/>
<text class="gray-th" x="545" y="298" text-anchor="middle" dominant-baseline="central">Polling / scraping</text>
<text class="gray-ts" x="545" y="318" text-anchor="middle" dominant-baseline="central">Strava, permits, USFS</text>

<!-- Arrow to storage -->
<line x1="132" y1="334" x2="132" y2="390" class="arr" marker-end="url(#arrow)"/>
<line x1="337" y1="334" x2="337" y2="390" class="arr" marker-end="url(#arrow)"/>
<line x1="545" y1="334" x2="545" y2="390" class="arr" marker-end="url(#arrow)"/>

<!-- ═══════════ STORAGE ═══════════ -->
<text class="tier-label" x="40" y="385">Storage</text>
<line class="tier-line" x1="40" y1="392" x2="640" y2="392"/>

<rect class="amber-box" x="60" y="405" width="260" height="56" rx="8"/>
<text class="amber-th" x="190" y="425" text-anchor="middle" dominant-baseline="central">Supabase (Postgres)</text>
<text class="amber-ts" x="190" y="445" text-anchor="middle" dominant-baseline="central">Observations, alerts, permits, zones</text>

<rect class="amber-box" x="360" y="405" width="260" height="56" rx="8"/>
<text class="amber-th" x="490" y="425" text-anchor="middle" dominant-baseline="central">Supabase storage</text>
<text class="amber-ts" x="490" y="445" text-anchor="middle" dominant-baseline="central">Fire GeoJSON, raster tiles</text>

<!-- Arrow to compute -->
<line x1="190" y1="461" x2="190" y2="510" class="arr" marker-end="url(#arrow)"/>
<line x1="490" y1="461" x2="490" y2="510" class="arr" marker-end="url(#arrow)"/>

<!-- ═══════════ API / COMPUTE ═══════════ -->
<text class="tier-label" x="40" y="505">API / compute</text>
<line class="tier-line" x1="40" y1="512" x2="640" y2="512"/>

<rect class="gray-box" x="40" y="525" width="190" height="56" rx="8"/>
<text class="gray-th" x="135" y="545" text-anchor="middle" dominant-baseline="central">Supabase RPC / views</text>
<text class="gray-ts" x="135" y="565" text-anchor="middle" dominant-baseline="central">Aggregated queries</text>

<rect class="gray-box" x="250" y="525" width="180" height="56" rx="8"/>
<text class="gray-th" x="340" y="545" text-anchor="middle" dominant-baseline="central">Derived analysis</text>
<text class="gray-ts" x="340" y="565" text-anchor="middle" dominant-baseline="central">Melt estimates, anomalies</text>

<rect class="coral-box" x="450" y="525" width="190" height="56" rx="8"/>
<text class="coral-th" x="545" y="545" text-anchor="middle" dominant-baseline="central">Strike window engine</text>
<text class="coral-ts" x="545" y="565" text-anchor="middle" dominant-baseline="central">Conditions + traffic + permits</text>

<!-- Arrow to frontend -->
<line x1="135" y1="581" x2="135" y2="635" class="arr" marker-end="url(#arrow)"/>
<line x1="340" y1="581" x2="340" y2="635" class="arr" marker-end="url(#arrow)"/>
<line x1="545" y1="581" x2="545" y2="635" class="arr" marker-end="url(#arrow)"/>

<!-- ═══════════ FRONTEND ═══════════ -->
<text class="tier-label" x="40" y="630">Frontend (React + Vite on Vercel)</text>
<line class="tier-line" x1="40" y1="637" x2="640" y2="637"/>

<rect class="blue-box" x="40" y="650" width="120" height="56" rx="8"/>
<text class="blue-th" x="100" y="670" text-anchor="middle" dominant-baseline="central">Terrain map</text>
<text class="blue-ts" x="100" y="690" text-anchor="middle" dominant-baseline="central">Mapbox GL JS</text>

<rect class="blue-box" x="172" y="650" width="120" height="56" rx="8"/>
<text class="blue-th" x="232" y="670" text-anchor="middle" dominant-baseline="central">Time-series</text>
<text class="blue-ts" x="232" y="690" text-anchor="middle" dominant-baseline="central">D3 / Recharts</text>

<rect class="blue-box" x="304" y="650" width="120" height="56" rx="8"/>
<text class="blue-th" x="364" y="670" text-anchor="middle" dominant-baseline="central">Zone reports</text>
<text class="blue-ts" x="364" y="690" text-anchor="middle" dominant-baseline="central">Narratives</text>

<rect class="blue-box" x="436" y="650" width="120" height="56" rx="8"/>
<text class="blue-th" x="496" y="670" text-anchor="middle" dominant-baseline="central">Strike windows</text>
<text class="blue-ts" x="496" y="690" text-anchor="middle" dominant-baseline="central">Go / no-go signals</text>

<rect class="blue-box" x="568" y="650" width="72" height="56" rx="8"/>
<text class="blue-th" x="604" y="670" text-anchor="middle" dominant-baseline="central">NDSI</text>
<text class="blue-ts" x="604" y="690" text-anchor="middle" dominant-baseline="central">Satellite</text>

<!-- ═══════════ FOOTER ═══════════ -->
<text class="ts" x="340" y="745" text-anchor="middle">11 data feeds · 8 with APIs, 1 HTML scrape (USFS), 1 undocumented endpoint (ReserveCalifornia), 1 raster (Sentinel-2)</text>
<text class="ts" x="340" y="765" text-anchor="middle">React + Vite · Supabase · Mapbox GL · Vercel</text>

<!-- ═══════════ LEGEND ═══════════ -->
<text class="tier-label" x="40" y="800">Legend</text>
<line class="tier-line" x1="40" y1="807" x2="640" y2="807"/>
<rect class="teal-box" x="40" y="818" width="14" height="14" rx="3"/>
<text class="ts" x="62" y="830">Sensor / environmental</text>
<rect class="green-box" x="210" y="818" width="14" height="14" rx="3"/>
<text class="ts" x="232" y="830">Official reports</text>
<rect class="pink-box" x="340" y="818" width="14" height="14" rx="3"/>
<text class="ts" x="362" y="830">Boot traffic (Strava)</text>
<rect class="amber-box" x="490" y="818" width="14" height="14" rx="3"/>
<text class="ts" x="512" y="830">Permits / availability</text>
<rect class="coral-box" x="40" y="842" width="14" height="14" rx="3"/>
<text class="ts" x="62" y="854">Fire / strike window</text>
<rect class="blue-box" x="210" y="842" width="14" height="14" rx="3"/>
<text class="ts" x="232" y="854">Frontend views</text>
<rect class="gray-box" x="340" y="842" width="14" height="14" rx="3"/>
<text class="ts" x="362" y="854">Infrastructure</text>
</svg>